<?xml version="1.0" encoding="UTF-8"?>
<!DOCTYPE svg PUBLIC "-//W3C//DTD SVG 1.1//EN" "http://www.w3.org/Graphics/SVG/1.1/DTD/svg11.dtd">
<!-- Creator: CorelDRAW (OEM Version) -->
<svg xmlns="http://www.w3.org/2000/svg" xml:space="preserve" width="412.176mm" height="234.459mm" version="1.1" style="shape-rendering:geometricPrecision; text-rendering:geometricPrecision; image-rendering:optimizeQuality; fill-rule:evenodd; clip-rule:evenodd"
viewBox="0 0 41217.6 23445.9"
 xmlns:xlink="http://www.w3.org/1999/xlink"
 xmlns:xodm="http://www.corel.com/coreldraw/odm/2003">
 <defs>
  <style type="text/css">
   <![CDATA[
    .fil0 {fill:#B61E83;fill-rule:nonzero}
    .fil5 {fill:#C57B1B;fill-rule:nonzero}
    .fil6 {fill:#D1891D;fill-rule:nonzero}
    .fil4 {fill:url(#id0);fill-rule:nonzero}
    .fil3 {fill:url(#id1);fill-rule:nonzero}
    .fil2 {fill:url(#id2);fill-rule:nonzero}
    .fil1 {fill:url(#id3);fill-rule:nonzero}
   ]]>
  </style>
  <linearGradient id="id0" gradientUnits="userSpaceOnUse" x1="227.15" y1="14628.66" x2="39664.49" y2="14628.66">
   <stop offset="0" style="stop-opacity:1; stop-color:#D79F34"/>
   <stop offset="0.54902" style="stop-opacity:1; stop-color:#D0861A"/>
   <stop offset="0.980392" style="stop-opacity:1; stop-color:#BE751C"/>
   <stop offset="1" style="stop-opacity:1; stop-color:#BE751C"/>
  </linearGradient>
  <linearGradient id="id1" gradientUnits="userSpaceOnUse" x1="22923.78" y1="2309.03" x2="22923.78" y2="9777.32">
   <stop offset="0" style="stop-opacity:1; stop-color:#FFDF7C"/>
   <stop offset="0.839216" style="stop-opacity:1; stop-color:#D0861A"/>
   <stop offset="0.980392" style="stop-opacity:1; stop-color:#BE751C"/>
   <stop offset="1" style="stop-opacity:1; stop-color:#BE751C"/>
  </linearGradient>
  <linearGradient id="id2" gradientUnits="userSpaceOnUse" x1="16155.2" y1="8738.21" x2="22055" y2="791.04">
   <stop offset="0" style="stop-opacity:1; stop-color:#A65300"/>
   <stop offset="1" style="stop-opacity:1; stop-color:#FACA62"/>
  </linearGradient>
  <linearGradient id="id3" gradientUnits="userSpaceOnUse" xlink:href="#id2" x1="13677.15" y1="14133.68" x2="9130.62" y2="5837.31">
  </linearGradient>
 </defs>
 <g id="Layer_x0020_1">
  <metadata id="CorelCorpID_0Corel-Layer"/>
  <g id="_2132398217184">
   <path class="fil0" d="M19567.09 4775.57c-3.08,1436.91 -6.14,2874.17 -8.87,4311.11l0 405.05c-121.48,-91.8 -237.85,-187.34 -348.74,-287 -233.74,-295.48 -364.43,-578.38 -369.55,-590.66l0 -0.68 -0.7 0c-647.99,-917.58 -857.16,-2134.75 -467.81,-3196.32 257.96,-703.28 224.54,-1509.59 -97.6,-2185.59 489,15.02 992.66,276.06 1184.42,726.15 108.5,255.23 109.53,541.18 108.85,817.94z"/>
   <path class="fil0" d="M20466.24 8617.49c0,-0.35 0,0 -0.35,0.34 -16.72,36.52 -149.8,315.29 -380.13,601.93 -1.35,1.02 -2.73,2.38 -4.08,3.76 -23.56,20.81 -47.79,41.29 -72,61.42 -54.62,46.41 -109.89,91.78 -166.86,135.79 -25.96,20.47 -51.88,40.95 -78.5,60.76 -4.78,3.73 -9.55,7.17 -14.66,10.9l0 -697.13c-2.74,-1339.66 -5.47,-2679.68 -8.19,-4019.69 -0.69,-276.76 0.34,-562.71 108.84,-817.94 191.77,-450.09 695.43,-711.13 1184.41,-726.15 -322.12,676 -355.54,1482.31 -97.58,2185.59 389.67,1062.95 179.82,2282.17 -470.9,3200.42z"/>
   <path class="fil0" d="M18839.23 8613.39l0.7 0 0 0.68c-0.34,-0.34 -0.7,-0.68 -0.7,-0.68z"/>
   <path class="fil0" d="M19558.22 9491.73l0 74.37c-4.44,-3.41 -8.54,-6.82 -12.28,-10.23 -128.31,-107.5 -240.92,-230.34 -336.46,-351.14 110.89,99.66 227.26,195.2 348.74,287z"/>
   <path class="fil0" d="M20085.76 9219.76c-95.19,119.77 -208.14,240.89 -336.1,346.34l0 -73.71c5.11,-3.73 9.88,-7.17 14.66,-10.9 26.62,-19.81 52.54,-40.29 78.5,-60.76 56.97,-44.01 112.24,-89.38 166.86,-135.79 24.21,-20.13 48.44,-40.61 72,-61.42 1.35,-1.38 2.73,-2.74 4.08,-3.76z"/>
   <path class="fil0" d="M13243.06 12556.67c363.41,-783.12 843.16,-1333.54 1525.3,-1703.09 104.06,-56.32 213.27,-39.6 323.49,-9.91 1488.79,400.26 2967.32,395.84 4432.6,-117.03 44.02,-15.36 93.82,-14 203.35,-28.67 -320.41,501.94 -771.17,737.4 -1243.79,932.26 -598.17,247.03 -1233.87,336.43 -1875.05,381.15 -1104.22,77.1 -2210.16,140.24 -3365.9,545.29z"/>
   <polygon class="fil0" points="19654.1,10805.13 21799.75,11408.75 22199.35,11000.66 19835.65,9597.51 19457.55,9542.91 17328.96,10884.98 17494.46,11224.48 "/>
   <path class="fil0" d="M26062.34 12556.67c-363.4,-783.12 -843.08,-1333.54 -1525.21,-1703.09 -104.06,-56.32 -213.27,-39.6 -323.5,-9.91 -1488.79,400.26 -2967.33,395.84 -4432.6,-117.03 -44.01,-15.36 -93.82,-14 -203.36,-28.67 320.42,501.94 771.18,737.4 1243.8,932.26 598.17,247.03 1233.88,336.43 1875.04,381.15 1104.24,77.1 2210.17,140.24 3365.83,545.29z"/>
   <path class="fil0" d="M19614.18 151.19c385.92,427.56 728.53,884.13 813.83,1468.67 105.45,722.72 -221.45,1258.45 -800.17,1661.45 -1110.38,-616.26 -1119.59,-2086.98 -13.66,-3130.12z"/>
   <path class="fil1" d="M19654.1 9563.39c0,0 -1.69,2.38 -5.12,7.17 -16.38,21.13 -68.58,88.36 -153.19,184.59 -307.11,346.34 -1042.13,1066.69 -2060.38,1348.54 -24.23,7.17 -48.8,13.99 -73.36,20.13 -4.09,1.03 -8.86,2.06 -13.98,3.09 -214.63,43.68 -1278.95,92.13 -1667.26,-83.95 0.33,0 0,0 -0.34,-0.34 -138.88,-37.87 -274.71,-89.42 -405.74,-151.87 -660.28,-314.6 -1218.19,-920.3 -1602.41,-1642.34 -149.13,-279.78 -258.3,-580.42 -408.79,-859.2 -312.92,-580.8 -536.41,-769.49 -1491.88,-1319.22 10.6,50.86 -10.57,-50.84 0,0 397.55,-216.68 1138.71,-426.18 1730.74,-466.1 577.02,-39.6 718.96,215.31 875.95,763.31 163.1,569.87 326.2,1249.27 730.22,1615.75 660.62,599.53 1558.07,847.26 2472.91,542.89 11.93,-4.1 23.54,-8.18 34.81,-11.59 120.1,-40.29 238.52,-83.95 357.27,-128.66 -1.02,0 -2.05,0 -3.07,0.34 -171.32,33.12 -335.44,56.65 -492.76,70.3 -2162.37,194.17 -3002.13,-1370.03 -2959.5,-3163.9 23.91,-1016.18 18.09,-1960.02 -721.34,-2761.58 803.24,-148.43 1694.21,156.97 2170.56,726.47 155.94,186.32 179.49,373.65 61.76,607.05 -328.26,651.08 -381.15,1357.43 -307.45,2067.54 38.57,370.9 156.96,703.97 344.3,988.19 360.69,549.06 975.58,917.92 1757.35,1028.81 342.6,48.81 692.35,50.16 1038.36,72.35 36.52,-16.05 73.04,-31.73 109.2,-47.42 76.44,79.15 155.94,156.27 238.52,230.99 110.89,99.66 227.26,195.2 348.74,287 31.38,24.56 63.48,48.45 95.88,71.66z"/>
   <path class="fil2" d="M27588.68 7069.99c11.01,-50.84 -10.5,50.86 0,0 -954.6,549.73 -1178.79,738.42 -1491.53,1319.22 -150.48,278.78 -260.02,579.42 -408.96,859.2 -371.68,699.89 -906.73,1289.86 -1540.4,1612 -189.06,96.23 -386.28,168.91 -590.68,212.93 -387.98,124.19 -1181.68,102.7 -1494.59,67.56 -39.6,-4.46 -70.64,-9.22 -92.83,-13.67 -5.45,-1.03 -10.23,-2.38 -14.33,-3.41 -1054.74,-267.17 -1821.48,-1011.4 -2139.52,-1366.62 -85.3,-95.21 -137.84,-162.07 -155.24,-184.96 -4.1,-5.79 -6.14,-8.52 -6.5,-8.85 29.69,-21.17 58.71,-42.66 87.37,-64.86 2.72,-1.68 5.45,-3.73 8.19,-6.14 5.11,-3.73 9.88,-7.17 14.66,-10.9 26.62,-19.81 52.54,-40.29 78.5,-60.76 56.97,-44.01 112.24,-89.38 166.86,-135.79 24.21,-20.13 48.11,-40.61 72,-61.42 1.35,-1.38 2.73,-2.74 4.08,-3.76 0.69,-0.34 1.03,-0.69 1.71,-1.03 16.04,-14.32 32.07,-28.33 47.76,-42.65 19.45,-17.04 38.58,-34.46 57.33,-52.21 16.74,-15.36 33.45,-31.05 49.82,-47.09 18.77,-17.05 37.55,-34.82 55.98,-53.24 22.86,-22.16 45.7,-44.68 67.89,-67.57 16.05,9.22 32.44,18.8 48.81,28.67 27.97,12.29 55.94,24.57 83.94,36.52 346.02,-22.19 695.76,-23.54 1038.37,-72.35 783.82,-110.89 1400.74,-482.49 1760.75,-1033.93 185.28,-283.21 303.01,-614.88 341.22,-983.07 73.04,-710.11 20.84,-1416.46 -307.78,-2067.54 -117.38,-233.4 -94.54,-420.73 61.76,-607.05 476.35,-569.5 1367.32,-874.9 2170.49,-726.47 -739.37,801.56 -745.18,1745.4 -720.95,2761.58 43,1806.15 -809.39,3380.59 -3006.58,3159.8 -142.99,-14.32 -291.42,-36.51 -446,-66.2 -1.02,-0.34 -2.05,-0.34 -2.7,-0.34 105.42,39.93 211.89,78.5 319.39,115.69 23.54,8.18 47.75,16.38 71.98,24.56 915.18,304.37 1812.28,56.64 2473.26,-542.89 403.32,-366.48 567.11,-1045.88 730.21,-1615.75 157.32,-548 299.29,-802.91 876.22,-763.31 591.68,39.92 1190.04,109.86 1730.04,466.1z"/>
   <path class="fil3" d="M19558.22 9491.73c-121.48,-91.8 -237.85,-187.34 -348.74,-287 -82.58,-74.72 -162.08,-151.84 -238.52,-230.99 -462.37,-482.53 -791.65,-1048.27 -906.3,-1701.38 -149.46,-853.43 -99.65,-1693.2 116,-2518.98 124.21,-473.98 92.84,-901.87 -192.45,-1285.76 -356.93,-478.76 -808.38,-812.47 -1452.62,-1060.89 426.88,1141.76 125.91,2086.97 -296.18,3014.79 -42.99,94.18 -80.87,193.49 -105.79,295.15 -39.58,158.35 -373.99,1196.01 -67.57,2203.33 73.04,240.57 182.58,478.42 341.24,702.62 0,0 363.42,514.91 1070.43,833.61 44.71,20.14 91.11,40.26 138.56,58.02 152.18,59.02 318.01,108.15 497.85,141.6 225.91,41.98 456.23,44.71 456.23,44.71 221.12,2.38 504.68,-26.28 737.72,-63.13l0.37 0c133.41,-21.5 250.44,-45.74 327.58,-68.6 6.47,-1.71 12.62,-3.4 18.07,-5.44 -32.4,-23.21 -64.5,-47.1 -95.88,-71.66zm3669.26 -3775.06c-24.9,-101.66 -63.13,-200.97 -106.13,-295.15 -422.1,-927.82 -723.39,-1873.03 -296.18,-3014.79 -644.6,248.42 -1096.04,582.13 -1452.63,1060.89 -285.28,383.89 -316.65,811.78 -192.44,1285.76 215.65,825.78 265.46,1665.55 116,2518.98 -113.27,644.92 -460.66,1204.89 -929.85,1683.61 -22.19,22.89 -45.03,45.41 -67.89,67.57 -18.43,18.42 -37.21,36.19 -55.98,53.24 -16.37,16.04 -33.08,31.73 -49.82,47.09 -18.75,17.39 -37.88,34.79 -57.33,52.21 -15.69,14.32 -31.72,28.33 -47.76,42.65 -0.68,0.34 -1.02,0.69 -1.71,1.03 -1.35,1.02 -2.73,2.38 -4.08,3.76 -23.56,20.81 -47.79,41.29 -72,61.42 -54.62,46.41 -109.89,91.78 -166.86,135.79 -25.96,20.47 -51.88,40.95 -78.5,60.76 -4.78,3.73 -9.55,7.17 -14.66,10.9 -2.74,2.41 -5.47,4.46 -8.19,6.14 -29.03,22.2 -58.01,43.69 -87.37,64.86 40.94,10.23 96.23,20.81 162.43,31.37 0.69,0 1.72,0.37 2.74,0.37 5.45,0.65 10.9,1.68 16.38,2.7l0.33 0c260.71,39.26 666.77,75.09 937.37,70.3 0,0 263.76,-5.81 508.08,-51.51 151.84,-28.34 293.8,-67.92 425.54,-115.34 44.01,-15.36 87.34,-31.75 129.31,-49.15 739.8,-305.39 1117.19,-829.51 1117.19,-829.51 161.74,-224.2 272.29,-464.76 344.65,-707.74 285.6,-956.12 -10.93,-1956.28 -70.64,-2198.21z"/>
   <path class="fil4" d="M987.68 15855.99l0 3243.77 535.06 200.63 0 100.66 -1270.41 0 0 -100.66 535.05 -200.63 0 -4146.67 -468.17 -133.4 0 -100.32 702.26 0c236.47,-0.33 421.42,41.96 554.83,126.6 134.12,84.96 261.38,198.6 381.5,341.22l2139.87 2508.05 0 -2675.24 -535.05 -200.31 0 -100.32 1271.09 0 0 100.32 -535.05 200.31 0 4481.38 -200.99 0 -3109.99 -3645.39zm4555.1 3545.06l0 -100.66 401.28 -100.31 0 -4280.4 -401.28 -99.99 0 -100.32 1906.11 0 0 100.32 -401.28 99.99 0 4280.4 401.28 100.31 0 100.66 -1906.11 0zm3684.96 -100.66l400.95 -100.31 0 -4313.52 -768.78 0c0,271.63 -73.71,532.68 -220.8,782.46 -62.44,102.37 -133.77,186.97 -213.94,253.88l-200.65 0 0 -1203.53 3912.55 0 0 1203.53 -200.63 0c-84.97,-66.91 -158.35,-151.51 -220.78,-253.88 -142.64,-240.92 -213.96,-501.61 -213.96,-782.46l-769.13 0 0 4313.52 400.95 100.31 0 100.66 -1905.78 0 0 -100.66zm4654.73 0l401.62 -100.31 0 -1537.93 -1371.38 -2742.47 -334.09 -99.99 0 -100.32 836.03 0c231.69,-0.33 418,48.8 558.6,147.08 140.25,97.91 255.23,238.52 343.96,421.06l990.25 1973 1016.53 -2240.51 -501.95 -200.31 0 -100.32 1271.08 0 0 100.32 -535.04 200.31 -1170.77 2574.92 0 1605.16 401.62 100.31 0 100.66 -1906.46 0 0 -100.66zm2682.78 0l534.69 -200.63 1839.59 -4447.63 200.64 0 1905.79 4547.95 334.39 100.31 0 100.66 -802.57 0c-231.69,0 -421.07,-52.54 -568.16,-157.65 -147.41,-104.41 -256.59,-241.59 -327.92,-411.17l-341.22 -802.57 -1598.35 0 -441.54 1070.1 501.95 200.63 0 100.66 -1237.29 0 0 -100.66zm1243.43 -1437.95l1464.91 0 -735.68 -1758.71 -729.23 1758.71zm4648.26 -2006.45l0 3243.77 535.07 200.63 0 100.66 -1270.41 0 0 -100.66 535.03 -200.63 0 -4146.67 -468.49 -133.4 0 -100.32 702.24 0c236.48,-0.33 421.78,41.96 555.18,126.6 134.11,84.96 261.05,198.6 381.51,341.22l2139.86 2508.05 0 -2675.24 -535.06 -200.31 0 -100.32 1270.84 0 0 100.32 -535.15 200.31 0 4481.38 -200.63 0 -3109.99 -3645.39zm3953.26 3444.4l534.36 -200.63 1839.59 -4447.63 200.89 0 1905.86 4547.95 334.24 100.31 0 100.66 -802.57 0c-231.62,0 -421.26,-52.54 -568.42,-157.65 -147.16,-104.41 -256.17,-241.59 -327.83,-411.17l-340.9 -802.57 -1598.75 0 -441.2 1070.1 501.6 200.63 0 100.66 -1236.87 0 0 -100.66zm1243.27 -1437.95l1464.9 0 -735.52 -1758.71 -729.38 1758.71zm3478.51 -2942.76l-334.23 -99.99 0 -100.32 802.06 0c231.87,0 421.51,52.2 568.67,156.95 147.41,104.77 258.48,241.95 334.23,411.19l1184.16 2695.4 1090.22 -2962.91 -501.85 -200.31 0 -100.32 1237.13 0 0 100.32 -534.88 200.31 -1638.42 4447.59 -200.9 0 -2006.19 -4547.91zm3718.83 4380.71l534.36 -200.63 1839.59 -4447.63 200.9 0 1905.86 4547.95 334.49 100.31 0 100.66 -802.57 0c-231.88,0 -421.26,-52.54 -568.15,-157.65 -147.42,-104.41 -256.69,-241.59 -328.35,-411.17l-340.89 -802.57 -1598.25 0 -441.73 1070.1 502.13 200.63 0 100.66 -1237.39 0 0 -100.66zm1243.53 -1437.95l1464.9 0 -735.78 -1758.71 -729.12 1758.71z"/>
   <path class="fil5" d="M14467.32 22726.36c403.62,0 708.95,-418.27 708.95,-752.88 0,-261.41 -152.66,-372.25 -342.97,-372.25 -106.66,0 -219.59,52.28 -313.7,135.94 131.75,-273.97 286.51,-589.75 342.98,-669.22 -179.86,8.36 -359.71,14.64 -539.56,18.82l-18.82 58.56c169.39,0 236.32,12.54 232.13,85.74 -8.36,138.03 -443.35,859.53 -443.35,1158.59 0,202.85 148.48,336.7 374.34,336.7zm4.18 -83.66c-184.03,0 -244.68,-225.86 -133.84,-510.28 60.65,-156.84 232.13,-441.26 449.63,-441.26 115.02,0 165.21,112.93 165.21,276.05 0,309.51 -207.04,675.49 -481,675.49z"/>
   <path id="_1" class="fil5" d="M15155.36 23301.47c169.4,0 290.69,-89.93 516.55,-395.26l535.38 -725.69c129.66,-177.76 198.67,-324.15 198.67,-422.44 0,-96.2 -56.46,-156.85 -142.21,-156.85 -85.74,0 -146.39,58.56 -146.39,138.03 0,127.57 119.21,119.2 119.21,192.4 0,73.19 -58.56,190.31 -244.69,430.81l-135.93 175.67 -54.38 -606.48c-18.82,-200.77 -54.37,-330.43 -221.68,-330.43 -138.02,0 -261.41,102.48 -336.7,267.69l56.47 20.91c48.1,-98.29 115.02,-169.39 181.94,-169.39 85.75,0 110.84,112.93 123.39,288.6l56.47 782.15 -48.1 62.74c-248.87,322.06 -328.34,380.61 -449.64,380.61 -69.01,0 -106.65,-18.82 -106.65,-58.55 0,-56.47 77.38,-62.74 77.38,-148.49 0,-60.64 -58.56,-104.56 -123.39,-104.56 -75.29,0 -142.21,54.37 -142.21,152.66 0,150.58 125.48,225.87 286.51,225.87z"/>
   <path id="_2" class="fil5" d="M16997.81 22684.53l554.2 10.46c780.06,14.64 1208.77,-376.44 1208.77,-936.91 0,-357.61 -278.14,-577.2 -694.31,-573.02l-581.38 6.27 -18.83 56.47c181.95,8.37 196.59,54.37 64.83,460.09l-150.57 460.09c-142.21,434.99 -140.12,449.63 -363.89,457.99l-18.82 58.56zm740.32 -62.74c-257.23,0 -278.14,-33.46 -190.31,-303.24l349.25 -1068.66 188.22 0c294.88,0 430.81,196.58 430.81,476.82 0,527.01 -351.34,895.08 -777.97,895.08z"/>
   <path id="_3" class="fil5" d="M19045.2 22699.17l83.65 -267.69c131.75,-370.16 349.25,-675.49 468.45,-694.31 -29.27,104.56 16.73,184.03 125.48,184.03 96.2,0 156.85,-79.47 156.85,-167.3 0,-94.11 -62.74,-152.67 -158.94,-152.67 -161.03,0 -309.51,175.67 -401.53,319.97 20.91,-52.28 35.55,-104.56 35.55,-152.66 0,-115.03 -81.56,-167.31 -186.12,-167.31 -138.03,0 -257.24,104.57 -299.06,265.6l58.55 23c29.28,-92.02 85.75,-169.39 163.13,-169.39 50.19,0 77.38,29.27 77.38,77.37 0,64.84 -56.47,188.22 -140.12,374.35l-232.14 522.83c41.83,-10.46 81.56,-14.64 121.3,-14.64 43.92,0 87.83,6.27 127.57,18.82z"/>
   <path id="_4" class="fil5" d="M19854.54 22726.36c87.83,0 152.66,-62.74 152.66,-150.58 0,-92.02 -64.83,-154.76 -152.66,-154.76 -87.84,0 -152.67,62.74 -152.67,154.76 0,87.84 64.83,150.58 152.67,150.58z"/>
   <path id="_5" class="fil5" d="M20837.46 22684.53l554.2 10.46c780.06,14.64 1208.77,-376.44 1208.77,-936.91 0,-357.61 -278.14,-577.2 -694.31,-573.02l-581.38 6.27 -18.83 56.47c181.95,8.37 196.59,54.37 64.83,460.09l-150.57 460.09c-142.21,434.99 -140.12,449.63 -363.89,457.99l-18.82 58.56zm740.32 -62.74c-257.23,0 -278.14,-33.46 -190.31,-303.24l349.25 -1068.66 188.22 0c294.88,0 430.81,196.58 430.81,476.82 0,527.01 -351.34,895.08 -777.97,895.08z"/>
   <path id="_6" class="fil5" d="M23282.2 21375.37c89.92,0 156.85,-64.83 156.85,-154.76 0,-92.01 -66.93,-158.94 -156.85,-158.94 -89.93,0 -156.85,66.93 -156.85,158.94 0,89.93 66.92,154.76 156.85,154.76zm-378.53 1129.31c0,-209.13 315.79,-524.92 315.79,-729.87 0,-106.66 -81.56,-173.58 -209.13,-173.58 -144.3,0 -253.05,100.38 -303.24,265.6l60.64 23c31.37,-98.29 85.75,-169.39 163.13,-169.39 37.64,0 69.01,20.91 69.01,83.65 0,175.67 -317.88,499.82 -317.88,738.23 0,123.39 83.65,184.04 200.77,184.04 144.3,0 273.96,-127.57 336.7,-286.51l-60.65 -31.37c-48.1,106.65 -110.84,194.49 -181.94,194.49 -46.01,0 -73.2,-35.55 -73.2,-98.29z"/>
   <path id="_7" class="fil5" d="M23694.18 22726.36c282.33,0 478.91,-146.4 478.91,-355.53 0,-292.78 -455.9,-303.24 -455.9,-543.74 0,-115.02 133.84,-169.39 253.04,-169.39 81.57,0 152.67,18.82 188.22,62.74 -73.19,2.09 -127.57,52.28 -127.57,127.57 0,69.01 56.47,119.2 135.94,119.2 79.47,0 138.02,-56.46 138.02,-140.12 0,-135.93 -148.48,-225.86 -345.06,-225.86 -204.95,0 -428.72,89.93 -428.72,315.79 0,296.97 451.72,336.7 451.72,541.65 0,115.02 -112.93,194.49 -278.14,194.49 -121.3,0 -213.32,-33.46 -261.42,-104.57 92.02,20.92 161.03,-41.82 161.03,-125.47 0,-73.2 -58.55,-123.39 -133.84,-123.39 -89.93,0 -150.57,62.74 -150.57,154.76 0,161.03 152.66,271.87 374.34,271.87z"/>
   <path id="_8" class="fil5" d="M24524.43 22699.17l121.3 -361.8c129.66,-326.24 378.52,-614.84 573.02,-614.84 73.19,0 104.56,41.82 104.56,115.02 0,169.4 -265.59,478.91 -265.59,704.77 0,106.66 64.83,184.04 200.76,184.04 144.3,0 273.96,-127.57 336.7,-286.51l-60.65 -31.37c-48.1,106.65 -110.84,194.49 -181.94,194.49 -46.01,0 -73.2,-35.55 -73.2,-98.29 0,-217.5 265.6,-504.01 265.6,-692.23 0,-106.65 -85.74,-211.22 -250.96,-211.22 -207.04,0 -380.61,177.76 -510.28,361.8 121.3,-296.97 336.7,-792.61 403.63,-892.99l-550.02 16.73 -18.82 58.56c175.67,0 238.41,12.54 240.5,85.74 4.18,115.02 -221.68,662.94 -340.88,928.54l-240.5 535.38c33.46,-10.46 71.1,-14.64 121.29,-14.64 50.19,0 92.02,6.27 125.48,18.82z"/>
   <path id="_9" class="fil5" d="M26072 22726.36c121.3,0 236.32,-73.2 326.25,-163.13 10.45,96.2 89.92,163.13 198.67,163.13 144.3,0 273.96,-127.57 336.7,-286.51l-60.65 -31.37c-48.1,106.65 -110.84,194.49 -181.94,194.49 -46.01,0 -73.2,-35.55 -73.2,-98.29 0,-46.01 27.19,-131.76 69.02,-232.14l271.87 -642.03c-31.37,10.46 -69.02,16.73 -106.66,16.73 -37.64,0 -77.38,-6.27 -108.75,-16.73l-60.65 175.67c-31.36,-110.84 -106.65,-204.95 -255.13,-204.95 -397.35,0 -696.41,420.35 -696.41,752.87 0,261.42 158.94,372.26 340.88,372.26zm56.47 -89.93c-117.12,0 -171.49,-85.74 -171.49,-276.05 0,-324.16 221.68,-685.95 466.36,-685.95 110.84,0 181.95,81.56 181.95,236.32 0,317.87 -267.69,725.68 -476.82,725.68z"/>
   <path id="_10" class="fil5" d="M27625.85 22625.97l-18.82 58.56 867.89 0c424.54,0 660.86,-163.12 660.86,-430.81 0,-236.32 -181.95,-328.34 -368.07,-351.34 261.41,-43.92 430.81,-215.4 430.81,-399.44 0,-244.68 -221.68,-317.88 -504.01,-315.79l-600.2 4.18 -18.83 56.47c181.95,8.37 196.59,54.37 64.83,460.09l-150.57 460.09c-142.21,434.99 -140.12,449.63 -363.89,457.99zm878.35 -1371.9l135.94 0c253.05,0 334.61,104.57 334.61,248.87 0,196.58 -140.12,382.71 -493.55,382.71l-184.04 0 207.04 -631.58zm-56.46 1367.72l-94.11 0c-292.79,0 -288.6,-23 -148.49,-453.81l71.11 -219.59 248.87 0c278.14,0 384.8,96.2 384.8,278.14 0,232.14 -186.13,395.26 -462.18,395.26z"/>
   <path id="_11" class="fil5" d="M29432.74 22699.17l121.3 -361.8c129.66,-326.24 378.52,-614.84 573.02,-614.84 73.19,0 104.56,41.82 104.56,115.02 0,169.4 -265.59,478.91 -265.59,704.77 0,106.66 64.83,184.04 200.76,184.04 144.3,0 273.96,-127.57 336.7,-286.51l-60.65 -31.37c-48.1,106.65 -110.84,194.49 -181.94,194.49 -46.01,0 -73.2,-35.55 -73.2,-98.29 0,-217.5 265.6,-504.01 265.6,-692.23 0,-106.65 -85.74,-211.22 -250.96,-211.22 -207.04,0 -380.61,177.76 -510.28,361.8 121.3,-296.97 336.7,-792.61 403.63,-892.99l-550.02 16.73 -18.82 58.56c175.67,0 238.41,12.54 240.5,85.74 4.18,115.02 -221.68,662.94 -340.88,928.54l-240.5 535.38c33.46,-10.46 71.1,-14.64 121.29,-14.64 50.19,0 92.02,6.27 125.48,18.82z"/>
   <path id="_12" class="fil5" d="M30980.31 22726.36c121.3,0 236.32,-73.2 326.25,-163.13 10.45,96.2 89.92,163.13 198.67,163.13 144.3,0 273.96,-127.57 336.7,-286.51l-60.65 -31.37c-48.1,106.65 -110.84,194.49 -181.94,194.49 -46.01,0 -73.2,-35.55 -73.2,-98.29 0,-46.01 27.19,-131.76 69.02,-232.14l271.87 -642.03c-31.37,10.46 -69.02,16.73 -106.66,16.73 -37.64,0 -77.38,-6.27 -108.75,-16.73l-60.65 175.67c-31.36,-110.84 -106.65,-204.95 -255.13,-204.95 -397.35,0 -696.41,420.35 -696.41,752.87 0,261.42 158.94,372.26 340.88,372.26zm56.47 -89.93c-117.12,0 -171.49,-85.74 -171.49,-276.05 0,-324.16 221.68,-685.95 466.36,-685.95 110.84,0 181.95,81.56 181.95,236.32 0,317.87 -267.69,725.68 -476.82,725.68z"/>
   <path id="_13" class="fil5" d="M32205.82 22699.17l87.83 -280.24 0 2.09c119.21,-359.7 393.17,-698.49 604.39,-698.49 73.2,0 104.57,41.82 104.57,115.02 0,169.4 -265.6,478.91 -265.6,704.77 0,106.66 64.83,184.04 200.77,184.04 144.3,0 273.96,-127.57 336.7,-286.51l-60.65 -31.37c-48.1,106.65 -110.84,194.49 -181.94,194.49 -46.01,0 -73.2,-35.55 -73.2,-98.29 0,-217.5 265.6,-504.01 265.6,-692.23 0,-106.65 -85.75,-211.22 -250.96,-211.22 -207.04,0 -380.62,177.76 -510.28,359.71 29.28,-66.93 52.28,-131.76 52.28,-192.4 0,-115.03 -81.56,-167.31 -186.12,-167.31 -138.03,0 -257.24,104.57 -299.06,265.6l58.55 23c29.28,-92.02 85.75,-169.39 163.13,-169.39 50.19,0 77.38,29.27 77.38,77.37 0,64.84 -56.47,188.22 -140.12,374.35l-232.14 522.83c41.83,-10.46 81.56,-14.64 121.3,-14.64 43.92,0 87.83,6.27 127.57,18.82z"/>
   <path id="_14" class="fil5" d="M33726.2 22726.36c165.22,0 319.97,-169.4 445.45,-361.8 -23,62.74 -39.73,125.48 -39.73,173.58 0,106.66 52.28,188.22 188.22,188.22 142.2,0 273.96,-131.76 334.6,-286.51l-60.64 -31.37c-46.01,106.65 -112.93,194.49 -179.86,194.49 -37.64,0 -75.28,-18.82 -75.28,-92.02 0,-48.1 23,-129.66 66.92,-234.23l273.96 -646.21c-31.37,10.46 -66.92,16.73 -104.56,16.73 -35.56,0 -69.02,-6.27 -98.3,-16.73l-81.56 194.49c-148.48,347.16 -403.62,780.06 -602.29,780.06 -71.11,0 -110.84,-52.28 -110.84,-125.48 0,-188.22 263.5,-541.65 263.5,-708.95 0,-115.02 -77.38,-169.4 -181.94,-169.4 -146.39,0 -255.14,100.38 -303.24,265.6l58.55 23c33.46,-98.29 87.84,-169.39 165.22,-169.39 41.82,0 75.28,20.91 75.28,83.65 0,133.84 -282.32,483.09 -282.32,702.68 0,110.84 75.28,219.59 248.86,219.59z"/>
   <path id="_15" class="fil5" d="M35129.47 22726.36c282.33,0 478.91,-146.4 478.91,-355.53 0,-292.78 -455.9,-303.24 -455.9,-543.74 0,-115.02 133.84,-169.39 253.04,-169.39 81.57,0 152.67,18.82 188.22,62.74 -73.19,2.09 -127.57,52.28 -127.57,127.57 0,69.01 56.47,119.2 135.94,119.2 79.47,0 138.02,-56.46 138.02,-140.12 0,-135.93 -148.48,-225.86 -345.06,-225.86 -204.95,0 -428.72,89.93 -428.72,315.79 0,296.97 451.72,336.7 451.72,541.65 0,115.02 -112.93,194.49 -278.14,194.49 -121.3,0 -213.32,-33.46 -261.42,-104.57 92.02,20.92 161.03,-41.82 161.03,-125.47 0,-73.2 -58.55,-123.39 -133.84,-123.39 -89.93,0 -150.57,62.74 -150.57,154.76 0,161.03 152.66,271.87 374.34,271.87z"/>
   <path id="_16" class="fil5" d="M35959.72 22699.17l121.3 -361.8c129.66,-326.24 378.52,-614.84 573.02,-614.84 73.19,0 104.56,41.82 104.56,115.02 0,169.4 -265.59,478.91 -265.59,704.77 0,106.66 64.83,184.04 200.76,184.04 144.3,0 273.96,-127.57 336.7,-286.51l-60.65 -31.37c-48.1,106.65 -110.84,194.49 -181.94,194.49 -46.01,0 -73.2,-35.55 -73.2,-98.29 0,-217.5 265.6,-504.01 265.6,-692.23 0,-106.65 -85.74,-211.22 -250.96,-211.22 -207.04,0 -380.61,177.76 -510.28,361.8 121.3,-296.97 336.7,-792.61 403.63,-892.99l-550.02 16.73 -18.82 58.56c175.67,0 238.41,12.54 240.5,85.74 4.18,115.02 -221.68,662.94 -340.88,928.54l-240.5 535.38c33.46,-10.46 71.1,-14.64 121.29,-14.64 50.19,0 92.02,6.27 125.48,18.82z"/>
   <path id="_17" class="fil5" d="M37507.29 22726.36c121.3,0 236.32,-73.2 326.25,-163.13 10.45,96.2 89.92,163.13 198.67,163.13 144.3,0 273.96,-127.57 336.7,-286.51l-60.65 -31.37c-48.1,106.65 -110.84,194.49 -181.94,194.49 -46.01,0 -73.2,-35.55 -73.2,-98.29 0,-46.01 27.19,-131.76 69.02,-232.14l271.87 -642.03c-31.37,10.46 -69.02,16.73 -106.66,16.73 -37.64,0 -77.38,-6.27 -108.75,-16.73l-60.65 175.67c-31.36,-110.84 -106.65,-204.95 -255.13,-204.95 -397.35,0 -696.41,420.35 -696.41,752.87 0,261.42 158.94,372.26 340.88,372.26zm56.47 -89.93c-117.12,0 -171.49,-85.74 -171.49,-276.05 0,-324.16 221.68,-685.95 466.36,-685.95 110.84,0 181.95,81.56 181.95,236.32 0,317.87 -267.69,725.68 -476.82,725.68z"/>
   <path id="_18" class="fil5" d="M38705.61 22726.36c144.3,0 273.96,-127.57 336.7,-286.51l-60.65 -31.37c-48.1,106.65 -110.83,194.49 -181.94,194.49 -46.01,0 -73.2,-35.55 -73.2,-98.29 0,-108.75 79.47,-319.97 186.13,-583.48 140.12,-345.06 313.7,-738.23 374.35,-851.16l-537.47 16.73 -18.82 58.56c171.48,0 238.41,12.54 240.5,83.65 6.27,209.13 -466.36,1100.03 -466.36,1313.34 0,96.2 64.83,184.04 200.76,184.04z"/>
   <path id="_19" class="fil5" d="M39803.55 21375.37c89.92,0 156.85,-64.83 156.85,-154.76 0,-92.01 -66.93,-158.94 -156.85,-158.94 -89.93,0 -156.85,66.93 -156.85,158.94 0,89.93 66.92,154.76 156.85,154.76zm-378.53 1129.31c0,-209.13 315.79,-524.92 315.79,-729.87 0,-106.66 -81.56,-173.58 -209.13,-173.58 -144.3,0 -253.05,100.38 -303.24,265.6l60.64 23c31.37,-98.29 85.75,-169.39 163.13,-169.39 37.64,0 69.01,20.91 69.01,83.65 0,175.67 -317.88,499.82 -317.88,738.23 0,123.39 83.65,184.04 200.77,184.04 144.3,0 273.96,-127.57 336.7,-286.51l-60.65 -31.37c-48.1,106.65 -110.84,194.49 -181.94,194.49 -46.01,0 -73.2,-35.55 -73.2,-98.29z"/>
   <polygon class="fil6" points="39142.66,15754.33 39142.66,14725.01 38758.29,14725.01 38758.29,14588.2 39681.75,14588.2 39681.75,14725.01 39297.38,14725.01 39297.38,15754.33 "/>
   <path id="_1_0" class="fil6" d="M39837.83 15754.33l0 -1166.13 231.27 0 275.79 825.47c25.52,76.82 43.97,134.36 55.65,172.64 13.3,-42.35 34.2,-104.78 62.43,-187.03l280.67 -811.08 206.57 0 0 1166.13 -148.21 0 0 -975.57 -340.39 975.57 -138.98 0 -336.59 -993.49 0 993.49 -148.21 0z"/>
  </g>
 </g>
</svg>
