<svg width="1542" height="831" viewBox="0 0 1542 831" fill="none" xmlns="http://www.w3.org/2000/svg">
<path d="M766.573 181.347C766.453 237.493 766.333 293.653 766.227 349.8V365.627C761.48 362.04 756.933 358.307 752.6 354.413C743.467 342.867 738.36 331.813 738.16 331.333V331.307H738.133C712.813 295.453 704.64 247.893 719.853 206.413C729.933 178.933 728.627 147.427 716.04 121.013C735.147 121.6 754.827 131.8 762.32 149.387C766.56 159.36 766.6 170.533 766.573 181.347Z" fill="#B61E83"/>
<path d="M801.707 331.467C801.707 331.453 801.707 331.467 801.693 331.48C801.04 332.907 795.84 343.8 786.84 355C786.787 355.04 786.733 355.093 786.68 355.147C785.76 355.96 784.813 356.76 783.867 357.547C781.733 359.36 779.573 361.133 777.347 362.853C776.333 363.653 775.32 364.453 774.28 365.227C774.093 365.373 773.907 365.507 773.707 365.653V338.413C773.6 286.067 773.493 233.707 773.387 181.347C773.36 170.533 773.4 159.36 777.64 149.387C785.133 131.8 804.813 121.6 823.92 121.013C811.333 147.427 810.027 178.933 820.107 206.413C835.333 247.947 827.133 295.587 801.707 331.467Z" fill="#B61E83"/>
<path d="M738.133 331.307H738.16V331.333C738.147 331.32 738.133 331.307 738.133 331.307Z" fill="#B61E83"/>
<path d="M766.227 365.627V368.533C766.053 368.4 765.893 368.267 765.747 368.133C760.733 363.933 756.333 359.133 752.6 354.413C756.933 358.307 761.48 362.04 766.227 365.627Z" fill="#B61E83"/>
<path d="M786.84 355C783.12 359.68 778.707 364.413 773.707 368.533V365.653C773.907 365.507 774.093 365.373 774.28 365.227C775.32 364.453 776.333 363.653 777.347 362.853C779.573 361.133 781.733 359.36 783.867 357.547C784.813 356.76 785.76 355.96 786.68 355.147C786.733 355.093 786.787 355.04 786.84 355Z" fill="#B61E83"/>
<path d="M519.467 485.387C533.667 454.787 552.413 433.28 579.067 418.84C583.133 416.64 587.4 417.293 591.707 418.453C649.88 434.093 707.653 433.92 764.907 413.88C766.627 413.28 768.573 413.333 772.853 412.76C760.333 432.373 742.72 441.573 724.253 449.187C700.88 458.84 676.04 462.333 650.987 464.08C607.84 467.093 564.627 469.56 519.467 485.387Z" fill="#B61E83"/>
<path d="M769.973 416.947L853.813 440.533L869.427 424.587L777.067 369.76L762.293 367.627L679.12 420.067L685.587 433.333L769.973 416.947Z" fill="#B61E83"/>
<path d="M1020.37 485.387C1006.17 454.787 987.427 433.28 960.773 418.84C956.707 416.64 952.44 417.293 948.133 418.453C889.96 434.093 832.187 433.92 774.933 413.88C773.213 413.28 771.267 413.333 766.987 412.76C779.507 432.373 797.12 441.573 815.587 449.187C838.96 458.84 863.8 462.333 888.853 464.08C932 467.093 975.213 469.56 1020.37 485.387Z" fill="#B61E83"/>
<path d="M768.413 0.653439C783.493 17.3601 796.88 35.2001 800.213 58.0401C804.333 86.2801 791.56 107.213 768.947 122.96C725.56 98.8801 725.2 41.4134 768.413 0.653439Z" fill="#B61E83"/>
<path d="M769.973 368.427C769.973 368.427 769.907 368.52 769.773 368.707C769.133 369.533 767.093 372.16 763.787 375.92C751.787 389.453 723.067 417.6 683.28 428.613C682.333 428.893 681.373 429.16 680.413 429.4C680.253 429.44 680.067 429.48 679.867 429.52C671.48 431.227 629.893 433.12 614.72 426.24C614.733 426.24 614.72 426.24 614.707 426.227C609.28 424.747 603.973 422.733 598.853 420.293C573.053 408 551.253 384.333 536.24 356.12C530.413 345.187 526.147 333.44 520.267 322.547C508.04 299.853 499.307 292.48 461.973 271C462.387 272.987 461.56 269.013 461.973 271C477.507 262.533 506.467 254.347 529.6 252.787C552.147 251.24 557.693 261.2 563.827 282.613C570.2 304.88 576.573 331.427 592.36 345.747C618.173 369.173 653.24 378.853 688.987 366.96C689.453 366.8 689.907 366.64 690.347 366.507C695.04 364.933 699.667 363.227 704.307 361.48C704.267 361.48 704.227 361.48 704.187 361.493C697.493 362.787 691.08 363.707 684.933 364.24C600.44 371.827 567.627 310.707 569.293 240.613C570.227 200.907 570 164.027 541.107 132.707C572.493 126.907 607.307 138.84 625.92 161.093C632.013 168.373 632.933 175.693 628.333 184.813C615.507 210.253 613.44 237.853 616.32 265.6C617.827 280.093 622.453 293.107 629.773 304.213C643.867 325.667 667.893 340.08 698.44 344.413C711.827 346.32 725.493 346.373 739.013 347.24C740.44 346.613 741.867 346 743.28 345.387C746.267 348.48 749.373 351.493 752.6 354.413C756.933 358.307 761.48 362.04 766.227 365.627C767.453 366.587 768.707 367.52 769.973 368.427Z" fill="url(#paint0_linear_1_19)"/>
<path d="M1080.01 271C1080.44 269.013 1079.6 272.987 1080.01 271C1042.71 292.48 1033.95 299.853 1021.73 322.547C1015.85 333.44 1011.57 345.187 1005.75 356.12C991.227 383.467 970.32 406.52 945.56 419.107C938.173 422.867 930.467 425.707 922.48 427.427C907.32 432.28 876.307 431.44 864.08 430.067C862.533 429.893 861.32 429.707 860.453 429.533C860.24 429.493 860.053 429.44 859.893 429.4C818.68 418.96 788.72 389.88 776.293 376C772.96 372.28 770.907 369.667 770.227 368.773C770.067 368.547 769.987 368.44 769.973 368.427C771.133 367.6 772.267 366.76 773.387 365.893C773.493 365.827 773.6 365.747 773.707 365.653C773.907 365.507 774.093 365.373 774.28 365.227C775.32 364.453 776.333 363.653 777.347 362.853C779.573 361.133 781.733 359.36 783.867 357.547C784.813 356.76 785.747 355.96 786.68 355.147C786.733 355.093 786.787 355.04 786.84 355C786.867 354.987 786.88 354.973 786.907 354.96C787.533 354.4 788.16 353.853 788.773 353.293C789.533 352.627 790.28 351.947 791.013 351.253C791.667 350.653 792.32 350.04 792.96 349.413C793.693 348.747 794.427 348.053 795.147 347.333C796.04 346.467 796.933 345.587 797.8 344.693C798.427 345.053 799.067 345.427 799.707 345.813C800.8 346.293 801.893 346.773 802.987 347.24C816.507 346.373 830.173 346.32 843.56 344.413C874.187 340.08 898.293 325.56 912.36 304.013C919.6 292.947 924.2 279.987 925.693 265.6C928.547 237.853 926.507 210.253 913.667 184.813C909.08 175.693 909.973 168.373 916.08 161.093C934.693 138.84 969.507 126.907 1000.89 132.707C972 164.027 971.773 200.907 972.72 240.613C974.4 311.187 941.093 372.707 855.24 364.08C849.653 363.52 843.853 362.653 837.813 361.493C837.773 361.48 837.733 361.48 837.707 361.48C841.827 363.04 845.987 364.547 850.187 366C851.107 366.32 852.053 366.64 853 366.96C888.76 378.853 923.813 369.173 949.64 345.747C965.4 331.427 971.8 304.88 978.173 282.613C984.32 261.2 989.867 251.24 1012.41 252.787C1035.53 254.347 1058.91 257.08 1080.01 271Z" fill="url(#paint1_linear_1_19)"/>
<path d="M766.227 365.627C761.48 362.04 756.933 358.307 752.6 354.413C749.373 351.493 746.267 348.48 743.28 345.387C725.213 326.533 712.347 304.427 707.867 278.907C702.027 245.56 703.973 212.747 712.4 180.48C717.253 161.96 716.027 145.24 704.88 130.24C690.933 111.533 673.293 98.4933 648.12 88.7867C664.8 133.4 653.04 170.333 636.547 206.587C634.867 210.267 633.387 214.147 632.413 218.12C630.867 224.307 617.8 264.853 629.773 304.213C632.627 313.613 636.907 322.907 643.107 331.667C643.107 331.667 657.307 351.787 684.933 364.24C686.68 365.027 688.493 365.813 690.347 366.507C696.293 368.813 702.773 370.733 709.8 372.04C718.627 373.68 727.627 373.787 727.627 373.787C736.267 373.88 747.347 372.76 756.453 371.32H756.467C761.68 370.48 766.253 369.533 769.267 368.64C769.52 368.573 769.76 368.507 769.973 368.427C768.707 367.52 767.453 366.587 766.227 365.627ZM909.6 218.12C908.627 214.147 907.133 210.267 905.453 206.587C888.96 170.333 877.187 133.4 893.88 88.7867C868.693 98.4933 851.053 111.533 837.12 130.24C825.973 145.24 824.747 161.96 829.6 180.48C838.027 212.747 839.973 245.56 834.133 278.907C829.707 304.107 816.133 325.987 797.8 344.693C796.933 345.587 796.04 346.467 795.147 347.333C794.427 348.053 793.693 348.747 792.96 349.413C792.32 350.04 791.667 350.653 791.013 351.253C790.28 351.933 789.533 352.613 788.773 353.293C788.16 353.853 787.533 354.4 786.907 354.96C786.88 354.973 786.867 354.987 786.84 355C786.787 355.04 786.733 355.093 786.68 355.147C785.76 355.96 784.813 356.76 783.867 357.547C781.733 359.36 779.573 361.133 777.347 362.853C776.333 363.653 775.32 364.453 774.28 365.227C774.093 365.373 773.907 365.507 773.707 365.653C773.6 365.747 773.493 365.827 773.387 365.893C772.253 366.76 771.12 367.6 769.973 368.427C771.573 368.827 773.733 369.24 776.32 369.653C776.347 369.653 776.387 369.667 776.427 369.667C776.64 369.693 776.853 369.733 777.067 369.773H777.08C787.267 371.307 803.133 372.707 813.707 372.52C813.707 372.52 824.013 372.293 833.56 370.507C839.493 369.4 845.04 367.853 850.187 366C851.907 365.4 853.6 364.76 855.24 364.08C884.147 352.147 898.893 331.667 898.893 331.667C905.213 322.907 909.533 313.507 912.36 304.013C923.52 266.653 911.933 227.573 909.6 218.12Z" fill="url(#paint2_linear_1_19)"/>
<path d="M29.7066 687.933V814.68L50.6133 822.52V826.453H0.973328V822.52L21.88 814.68V652.653L3.58665 647.44V643.52H31.0266C40.2666 643.507 47.4933 645.16 52.7066 648.467C57.9466 651.787 62.92 656.227 67.6133 661.8L151.227 759.8V655.267L130.32 647.44V643.52H179.987V647.44L159.08 655.267V830.373H151.227L29.7066 687.933ZM207.693 826.453V822.52L223.373 818.6V651.347L207.693 647.44V643.52H282.173V647.44L266.493 651.347V818.6L282.173 822.52V826.453H207.693ZM351.68 822.52L367.347 818.6V650.053H337.307C337.307 660.667 334.427 670.867 328.68 680.627C326.24 684.627 323.453 687.933 320.32 690.547H312.48V643.52H465.36V690.547H457.52C454.2 687.933 451.333 684.627 448.893 680.627C443.32 671.213 440.533 661.027 440.533 650.053H410.48V818.6L426.147 822.52V826.453H351.68V822.52ZM533.56 822.52L549.253 818.6V758.507L495.667 651.347L482.613 647.44V643.52H515.28C524.333 643.507 531.613 645.427 537.107 649.267C542.587 653.093 547.08 658.587 550.547 665.72L589.24 742.813L628.96 655.267L609.347 647.44V643.52H659.013V647.44L638.107 655.267L592.36 755.88V818.6L608.053 822.52V826.453H533.56V822.52ZM638.387 822.52L659.28 814.68L731.16 640.893H739L813.467 818.6L826.533 822.52V826.453H795.173C786.12 826.453 778.72 824.4 772.973 820.293C767.213 816.213 762.947 810.853 760.16 804.227L746.827 772.867H684.373L667.12 814.68L686.733 822.52V826.453H638.387V822.52ZM686.973 766.333H744.213L715.467 697.613L686.973 766.333ZM868.6 687.933V814.68L889.507 822.52V826.453H839.867V822.52L860.773 814.68V652.653L842.467 647.44V643.52H869.907C879.147 643.507 886.387 645.16 891.6 648.467C896.84 651.787 901.8 656.227 906.507 661.8L990.12 759.8V655.267L969.213 647.44V643.52H1018.87V647.44L997.96 655.267V830.373H990.12L868.6 687.933ZM1023.07 822.52L1043.95 814.68L1115.83 640.893H1123.68L1198.15 818.6L1211.21 822.52V826.453H1179.85C1170.8 826.453 1163.39 824.4 1157.64 820.293C1151.89 816.213 1147.63 810.853 1144.83 804.227L1131.51 772.867H1069.04L1051.8 814.68L1071.4 822.52V826.453H1023.07V822.52ZM1071.65 766.333H1128.89L1100.15 697.613L1071.65 766.333ZM1207.57 651.347L1194.51 647.44V643.52H1225.85C1234.91 643.52 1242.32 645.56 1248.07 649.653C1253.83 653.747 1258.17 659.107 1261.13 665.72L1307.4 771.04L1350 655.267L1330.39 647.44V643.52H1378.73V647.44L1357.83 655.267L1293.81 829.053H1285.96L1207.57 651.347ZM1352.88 822.52L1373.76 814.68L1445.64 640.893H1453.49L1527.96 818.6L1541.03 822.52V826.453H1509.67C1500.61 826.453 1493.21 824.4 1487.47 820.293C1481.71 816.213 1477.44 810.853 1474.64 804.227L1461.32 772.867H1398.87L1381.61 814.68L1401.23 822.52V826.453H1352.88V822.52ZM1401.47 766.333H1458.71L1429.96 697.613L1401.47 766.333Z" fill="url(#paint3_linear_1_19)"/>
<defs>
<linearGradient id="paint0_linear_1_19" x1="536.2" y1="556.66" x2="358.111" y2="218.929" gradientUnits="userSpaceOnUse">
<stop stop-color="#A65300"/>
<stop offset="1" stop-color="#FACA62"/>
</linearGradient>
<linearGradient id="paint1_linear_1_19" x1="633.311" y1="335.684" x2="864.574" y2="13.6051" gradientUnits="userSpaceOnUse">
<stop stop-color="#A65300"/>
<stop offset="1" stop-color="#FACA62"/>
</linearGradient>
<linearGradient id="paint2_linear_1_19" x1="909.864" y1="85.7733" x2="909.864" y2="377.228" gradientUnits="userSpaceOnUse">
<stop stop-color="#FFDF7C"/>
<stop offset="0.835" stop-color="#D0861A"/>
<stop offset="0.984" stop-color="#BE751C"/>
<stop offset="1" stop-color="#BE751C"/>
</linearGradient>
<linearGradient id="paint3_linear_1_19" x1="0.974661" y1="640.889" x2="1541.03" y2="640.889" gradientUnits="userSpaceOnUse">
<stop stop-color="#D79F34"/>
<stop offset="0.544" stop-color="#D0861A"/>
<stop offset="0.984" stop-color="#BE751C"/>
<stop offset="1" stop-color="#BE751C"/>
</linearGradient>
</defs>
</svg>

