<svg width="30" height="31" viewBox="0 0 30 31" fill="none" xmlns="http://www.w3.org/2000/svg">
<path d="M14.5404 0.371094H15.4411C19.1215 0.371094 22.6081 1.93507 25.9011 5.06302C28.2159 7.87139 29.4895 10.4135 29.7219 12.6892C29.8962 13.7641 29.9834 14.4469 29.9834 14.7374V15.9721C29.9834 17.967 29.3054 20.2767 27.9495 22.901C25.9737 26.1355 23.1602 28.3822 19.5089 29.6411C17.659 30.1156 16.2111 30.3529 15.1651 30.3529H14.8164C10.9907 30.3529 7.44112 28.8131 4.16752 25.7336C1.38787 22.6541 -0.00195312 19.0758 -0.00195312 14.9988V14.8245C-0.00195312 14.689 0.0271024 14.5728 0.0852136 14.4759C0.0852136 14.4081 0.056158 14.3742 -0.00195312 14.3742C0.375769 11.4884 1.14574 9.15453 2.30797 7.37266C4.14815 4.38029 6.98591 2.2498 10.8212 0.981189C12.2547 0.574459 13.4944 0.371094 14.5404 0.371094ZM12.5065 9.94378L12.5936 12.6892C12.5936 12.7764 12.5065 12.8684 12.3321 12.9652H10.8212V16.0593H12.3321C12.4193 16.0593 12.5065 16.1513 12.5936 16.3352V23.9614L12.6372 24.4989H15.7898V16.2481C15.8091 16.1222 15.8672 16.0593 15.9641 16.0593H18.5355C18.6517 16.0593 18.8018 15.086 18.9859 13.1395V12.9652H15.9641C15.8479 12.9652 15.7898 12.9071 15.7898 12.7909V10.6556C15.7898 9.74525 16.3224 9.24168 17.3878 9.14484H19.1602V6.48657C19.1602 6.31226 18.5403 6.2251 17.3006 6.2251H16.8503C14.8067 6.2251 13.475 6.99014 12.8551 8.52022C12.7389 8.83979 12.6227 9.31431 12.5065 9.94378Z" fill="#FFD249"/>
</svg>
