<svg width="31" height="31" viewBox="0 0 31 31" fill="none" xmlns="http://www.w3.org/2000/svg">
<path d="M14.5377 0.391602H16.6733C18.959 0.391602 21.5595 1.3358 24.4747 3.22419C26.6733 4.93826 28.2665 6.91865 29.2544 9.16535C30.1454 11.3055 30.5909 13.1116 30.5909 14.5836V15.8183C30.5909 19.1302 29.2302 22.4131 26.5086 25.667C23.3513 28.7368 19.6854 30.2717 15.5111 30.2717C10.3005 30.2717 6.04382 27.8459 2.74117 22.9942C1.32714 20.3795 0.620117 17.8084 0.620117 15.2808C0.620117 11.1167 2.3344 7.36412 5.76295 4.02312C8.95907 1.60211 11.884 0.391602 14.5377 0.391602ZM7.62251 13.3343V17.9536C7.62251 20.4715 8.42154 22.1517 10.0196 22.9942C10.7363 23.4009 13.0414 23.551 16.9348 23.4445C19.9179 23.4445 21.6321 23.1201 22.0777 22.4712C23.0849 21.6675 23.5885 20.3359 23.5885 18.4766V12.5354C23.5885 10.1919 22.7605 8.65694 21.1043 7.93063L20.0002 7.56748L18.8815 7.48032H12.4167C10.1116 7.48032 8.57166 8.60367 7.79684 10.8504C7.68062 11.5379 7.62251 12.3659 7.62251 13.3343ZM12.6782 8.90388H18.8815C21.1285 8.90388 22.252 10.0853 22.252 12.4482V18.738C21.9518 20.9266 21.0365 22.0209 19.5062 22.0209H16.9348C15.7339 22.0209 14.4651 22.05 13.1285 22.1081C10.9009 22.1081 9.59829 21.4011 9.22057 19.9873C9.10435 19.2029 9.04623 18.0214 9.04623 16.4429V14.4819C9.04623 11.5283 9.28352 10.0514 9.7581 10.0514C10.2327 9.2864 11.206 8.90388 12.6782 8.90388ZM18.9687 11.3007C19.2302 11.8914 19.5595 12.1868 19.9566 12.1868C20.3537 12.1868 20.6781 11.8914 20.93 11.3007C20.7944 10.5841 20.436 10.2258 19.8549 10.2258C19.2641 10.4097 18.9687 10.7681 18.9687 11.3007ZM11.5305 15.5568C11.5305 17.4646 12.6249 18.7913 14.8138 19.537H16.5862C18.7072 18.7719 19.7677 17.4162 19.7677 15.4697V15.2808C19.7677 14.1768 19.206 13.1455 18.0825 12.1868C17.3174 11.6541 16.5232 11.3878 15.7 11.3878H15.6128C13.7823 11.3878 12.5087 12.332 11.792 14.2204C11.6951 14.3463 11.608 14.7918 11.5305 15.5568ZM15.6128 12.7969H15.7C16.9784 12.7969 17.8355 13.4796 18.2714 14.845C18.3295 14.9225 18.3585 15.1307 18.3585 15.4697C18.0777 17.2999 17.1915 18.2151 15.7 18.2151C14.5184 18.2151 13.6612 17.6244 13.1285 16.4429C13.0511 16.3461 12.9881 16.0507 12.9397 15.5568C13.1528 13.7169 14.0438 12.7969 15.6128 12.7969Z" fill="#FFD249"/>
</svg>

