<svg width="31" height="31" viewBox="0 0 31 31" fill="none" xmlns="http://www.w3.org/2000/svg">
<path d="M15.5548 0.352539H16.2521C19.3804 0.352539 22.5039 1.5582 25.6225 3.96953C27.9373 6.2937 29.3513 8.38546 29.8646 10.2448C30.2133 11.0195 30.4458 11.9056 30.562 12.9031C30.6782 13.8908 30.7363 14.5348 30.7363 14.835V15.6194V16.2441C30.5039 18.3842 30.0341 20.1806 29.3271 21.6332C27.7678 24.7902 25.3852 27.1725 22.1794 28.7801C19.8841 29.7291 17.8211 30.2036 15.9906 30.2036H15.8163C12.1165 30.2036 8.73155 28.8479 5.66135 26.1363C3.73399 24.1317 2.52819 22.3644 2.04393 20.8343C1.51124 19.6432 1.15773 18.1421 0.983398 16.3312V14.4719C0.983398 11.4311 2.24732 8.34188 4.77515 5.20425C8.08749 1.96978 11.6807 0.352539 15.5548 0.352539ZM9.90346 9.88164V10.4191C10.0681 11.3004 10.625 11.741 11.5742 11.741C12.349 11.741 12.8817 11.3004 13.1722 10.4191V10.332C13.1722 9.42165 12.6105 8.88903 11.487 8.73408C10.7993 8.73408 10.2715 9.1166 9.90346 9.88164ZM17.5015 13.7746H17.3126V12.8885H14.4942V21.2846C14.5136 21.4008 14.5717 21.4589 14.6686 21.4589H17.1383C17.2545 21.4589 17.3126 21.4008 17.3126 21.2846V16.7815C17.4579 15.542 17.9615 14.9222 18.8235 14.9222C19.8211 14.9222 20.3199 15.542 20.3199 16.7815V21.2846C20.3393 21.4008 20.3974 21.4589 20.4942 21.4589H23.1528V15.8954C23.1528 14.898 22.6782 13.9828 21.7291 13.15C21.0124 12.8595 20.5717 12.7142 20.4071 12.7142H19.5209C18.8332 12.7433 18.1601 13.0967 17.5015 13.7746ZM10.0778 13.0629V21.2846C10.0972 21.4008 10.1553 21.4589 10.2521 21.4589H12.7219C12.8381 21.4589 12.8962 21.4008 12.8962 21.2846V13.2372L12.7219 12.8885H10.2521C10.1359 12.9079 10.0778 12.966 10.0778 13.0629Z" fill="#FFD249"/>
</svg>
