<svg width="31" height="31" viewBox="0 0 31 31" fill="none" xmlns="http://www.w3.org/2000/svg">
<path d="M15.4239 0.352539H16.0341C19.3658 0.352539 22.5813 1.62115 25.6805 4.15837C28.9735 7.49937 30.62 11.005 30.62 14.6752V16.0988C30.62 18.2293 29.7967 20.7326 28.1503 23.6088C26.1164 26.514 23.3464 28.5186 19.8404 29.6226C18.2133 30.0293 16.8573 30.2327 15.7726 30.2327H15.6854C11.6273 30.2327 8.00022 28.6445 4.80411 25.4681C2.09225 22.3692 0.736328 18.9798 0.736328 15.2999C0.736328 11.3681 2.27143 7.77052 5.34164 4.507C8.53775 1.73736 11.8985 0.352539 15.4239 0.352539ZM7.73872 6.88927L14.1891 15.5468V15.6049L7.68061 22.6936H9.07528L14.8864 16.4765C17.9663 20.6019 19.5353 22.6743 19.5934 22.6936H24.5328L17.6757 13.4551V13.397C17.9179 13.1936 19.9324 11.0244 23.7193 6.88927H22.3246L17.0365 12.5254H16.9203C14.315 8.95197 12.9009 7.07327 12.6782 6.88927H7.73872ZM10.0051 7.93515H12.1552C18.9348 16.9219 22.3246 21.4734 22.3246 21.5897H20.1164C19.9808 21.4928 16.5716 16.9607 9.88883 7.99325L10.0051 7.93515Z" fill="#FFD249"/>
</svg>
