<svg width="187" height="41" viewBox="0 0 187 41" fill="none" xmlns="http://www.w3.org/2000/svg">
<path d="M22.794 0.15332V17.1441C21.2447 14.0804 18.3876 12.3471 13.4575 12.3471C5.09321 12.3471 0 17.4248 0 27.1225C0 31.7486 1.32976 35.3219 3.57215 37.7906C5.46642 39.8778 8.24511 41.0007 11.1085 41.0007H30.644V0.15332H22.794ZM22.7877 27.7145L22.7815 33.7473C22.7815 34.3363 22.2922 34.8153 21.6838 34.8153H15.402C10.5941 34.8153 8.13221 32.1392 8.13221 27.1225C8.13221 22.1058 9.9073 19.4297 15.402 19.4297C20.3321 19.4297 22.7877 22.0509 22.7877 27.1225C22.7877 27.3239 22.7972 27.5223 22.7877 27.7145Z" fill="white"/>
<path d="M64.2662 27.3471C64.2662 16.7553 59.9131 11.4609 49.0869 11.4609C39.4085 11.4609 34.0801 16.7553 34.0801 26.2302C34.0801 35.7051 39.3489 40.9995 50.1187 40.9995C59.0538 40.9995 63.9243 36.822 63.9243 30.6915H56.8208C56.8208 32.8642 54.0703 34.7042 50.1751 34.7042C45.7656 34.7042 42.9587 33.0869 42.3283 28.4609H64.2662V27.3471ZM42.6137 23.0536C43.5891 19.5444 46.2235 17.7592 49.4883 17.7592C53.211 17.7592 55.905 19.4315 56.5354 23.0536H42.6137Z" fill="white"/>
<path d="M82.5504 23.1116C76.7641 22.1626 74.299 21.3264 74.299 20.0448C74.299 18.931 75.2179 17.7592 79.7999 17.7592C85.8152 17.7592 88.7915 18.7083 88.7915 21.772H95.895C95.895 14.5277 91.4259 11.4609 81.2896 11.4609C71.9531 11.4609 67.7129 14.0242 67.7129 20.2126C67.7129 27.2342 74.9294 28.6836 81.1736 29.4648C86.731 30.2429 89.6508 30.3559 89.6508 32.3607C89.6508 33.7003 87.9917 34.7042 83.9805 34.7042C78.2538 34.7042 74.7004 33.7003 74.7004 30.6915H67.6565C67.6565 37.9358 72.3514 40.9995 82.8358 40.9995C91.5984 40.9995 96.24 38.4942 96.24 32.1379C96.24 25.0615 90.5101 24.3352 82.5504 23.1116Z" fill="white"/>
<path d="M99.7217 0V41H107.568V0H99.7217ZM130.425 13.1337H120.86L107.568 27.0668L120.86 41H130.425L117.137 27.0668L130.425 13.1337Z" fill="white"/>
<path d="M141.623 12.4354V0.0126953H133.802V41.0035H141.623V23.8968C141.623 22.548 141.106 21.2237 140.099 20.296C140.093 20.2899 140.087 20.2838 140.08 20.2777C138.87 19.167 137.305 18.4133 135.564 18.1874C137.289 17.983 138.854 17.2079 140.071 16.0697C141.081 15.1237 141.623 13.7994 141.623 12.4354Z" fill="white"/>
<path d="M145.146 13.2354C145.321 14.3156 145.839 15.3317 146.67 16.0946C147.893 17.2145 149.458 17.9804 151.164 18.1818C149.424 18.4076 147.859 19.1644 146.648 20.2752L146.595 20.324C145.604 21.2608 145.086 23.9461 145.086 25.2918V41.001H152.902V13.2354H145.146Z" fill="white"/>
<path d="M149.549 1.69186L149.593 1.31348L149.602 1.46605C149.784 4.06593 151.832 6.17452 154.491 6.49798L154.984 6.55901C152.083 6.65971 149.743 8.90562 149.599 11.7252V11.8045L149.552 11.417C149.257 8.74389 146.999 6.68107 144.239 6.56206H144.205L144.678 6.50408C147.25 6.19283 149.266 4.20325 149.552 1.69797L149.549 1.69186Z" fill="white"/>
<path d="M171.121 33.9082L171.094 33.9117C171.1 33.9117 171.111 33.9117 171.121 33.9082Z" fill="white"/>
<path d="M156.358 0.15332V41.0007H175.894C178.757 41.0007 181.536 39.8778 183.43 37.7906C185.672 35.3219 187.002 31.7486 187.002 27.1225C187.002 17.4248 181.909 12.3471 173.545 12.3471C168.614 12.3471 165.757 14.0804 164.208 17.1441V0.15332H156.358ZM164.214 27.1225C164.214 22.0509 166.67 19.4297 171.6 19.4297C177.095 19.4297 178.87 22.0509 178.87 27.1225C178.87 32.1392 176.408 34.8153 171.6 34.8153H165.318C164.71 34.8153 164.221 34.3363 164.221 33.7473L164.214 27.7145C164.205 27.5223 164.214 27.3239 164.214 27.1225Z" fill="white"/>
</svg>
